<svg id="SvgjsSvg1012" width="256" height="256" xmlns="http://www.w3.org/2000/svg" version="1.1" xmlns:xlink="http://www.w3.org/1999/xlink" xmlns:svgjs="http://svgjs.com/svgjs"><defs id="SvgjsDefs1013"></defs><g id="SvgjsG1014"><svg xmlns="http://www.w3.org/2000/svg" fill-rule="evenodd" stroke-linejoin="round" stroke-miterlimit="1.414" clip-rule="evenodd" viewBox="0 0 32 32" width="256" height="256"><rect width="32" height="32" fill="none"></rect><path fill-rule="nonzero" d="M14.992,25.6l0,-21.616c0.02,-0.184 0.011,-0.236 0.087,-0.408c0.114,-0.256 0.339,-0.458 0.605,-0.545c0.179,-0.058 0.23,-0.043 0.415,-0.043c0.068,0.014 0.136,0.029 0.204,0.043c0.194,0.087 0.378,0.195 0.501,0.364c0.123,0.169 0.169,0.378 0.191,0.589l0,21.616l4.299,-4.299l0.05,-0.046c0.047,-0.039 0.058,-0.05 0.109,-0.083c0.171,-0.112 0.371,-0.163 0.584,-0.163c0.06,0.004 0.076,0.003 0.136,0.014c0.553,0.095 0.964,0.721 0.784,1.289c-0.034,0.109 -0.088,0.212 -0.157,0.303c-0.036,0.048 -0.048,0.058 -0.089,0.103l-6.009,6.008c-0.044,0.042 -0.055,0.053 -0.103,0.09c-0.344,0.261 -0.859,0.267 -1.21,0c-0.049,-0.037 -0.059,-0.048 -0.103,-0.09l-6.009,-6.008c-0.041,-0.045 -0.053,-0.055 -0.09,-0.103c-0.354,-0.467 -0.192,-1.243 0.368,-1.51c0.329,-0.156 0.744,-0.114 1.035,0.107c0.049,0.036 0.059,0.048 0.103,0.089l4.299,4.299Z" fill="#000000" class="color000 svgShape"></path></svg></g></svg>