<svg xmlns="http://www.w3.org/2000/svg" version="1.1" xmlns:xlink="http://www.w3.org/1999/xlink" xmlns:svgjs="http://svgjs.dev/svgjs" width="1000" height="1000" viewBox="0 0 1000 1000"><g transform="matrix(1,0,0,1,-0.45770795804941145,-0.45770795804941145)"><svg viewBox="0 0 336 336" data-background-color="#ffffff" preserveAspectRatio="xMidYMid meet" height="1000" width="1000" xmlns="http://www.w3.org/2000/svg" xmlns:xlink="http://www.w3.org/1999/xlink"><g id="tight-bounds" transform="matrix(1,0,0,1,0.15378987390459997,0.15378987390459997)"><svg viewBox="0 0 335.6924202521908 335.6924202521908" height="335.6924202521908" width="335.6924202521908"><g><svg></svg></g><g><svg viewBox="0 0 335.6924202521908 335.6924202521908" height="335.6924202521908" width="335.6924202521908"><g><path d="M0 167.846c0-92.699 75.147-167.846 167.846-167.846 92.699 0 167.846 75.147 167.846 167.846 0 92.699-75.147 167.846-167.846 167.846-92.699 0-167.846-75.147-167.846-167.846zM167.846 329.094c89.055 0 161.248-72.193 161.248-161.248 0-89.055-72.193-161.248-161.248-161.248-89.055 0-161.248 72.193-161.248 161.248 0 89.055 72.193 161.248 161.248 161.248z" data-fill-palette-color="tertiary" fill="#c10000" stroke="transparent"></path><ellipse rx="161.13236172105158" ry="161.13236172105158" cx="167.8462101260954" cy="167.8462101260954" fill="#c10000" stroke="transparent" stroke-width="0" fill-opacity="1" data-fill-palette-color="tertiary"></ellipse></g><g transform="matrix(1,0,0,1,63.79812712003272,72.06698951251684)"><svg viewBox="0 0 208.09616601212537 191.55844122715712" height="191.55844122715712" width="208.09616601212537"><g><svg viewBox="0 0 208.09616601212537 191.55844122715712" height="191.55844122715712" width="208.09616601212537"><g><svg viewBox="0 0 213.15844122715708 196.2184095861986" height="191.55844122715712" width="208.09616601212537"><g transform="matrix(1,0,0,1,0,121.27084901645249)"><svg viewBox="0 0 213.15844122715708 74.9475605697461" height="74.9475605697461" width="213.15844122715708"><g id="textblocktransform"><svg viewBox="0 0 213.15844122715708 74.9475605697461" height="74.9475605697461" width="213.15844122715708" id="textblock"><g><svg viewBox="0 0 213.15844122715708 74.9475605697461" height="74.9475605697461" width="213.15844122715708"><g transform="matrix(1,0,0,1,0,0)"><svg width="213.15844122715708" viewBox="4.25 -35 101.23999786376953 35.599998474121094" height="74.9475605697461" data-palette-color="#ffffff"><path d="M10.9-34.55L10.9-34.55Q13.3-34.55 15.75-34.52 18.2-34.5 20.6-34.45 23-34.4 25.2-34.2L25.2-34.2 24.95-30.8 12-30.8Q10.25-30.8 9.45-30.03 8.65-29.25 8.65-27.5L8.65-27.5 8.65 0 4.25 0 4.25-28.35Q4.25-31.3 6.05-32.93 7.85-34.55 10.9-34.55ZM5.1-15.95L5.1-19.5 23.05-19.5 23.05-15.95 5.1-15.95ZM40.05-24.95L40.05-24.95Q45.55-24.95 48.02-22.95 50.5-20.95 50.5-17L50.5-17Q50.55-13.75 49.15-11.93 47.75-10.1 44.7-10.1L44.7-10.1 30.5-10.1 30.5-13.4 43.6-13.4Q45.25-13.4 45.75-14.53 46.25-15.65 46.25-17L46.25-17Q46.2-19.35 44.85-20.35 43.5-21.35 40.25-21.35L40.25-21.35Q37.6-21.35 36.07-20.58 34.55-19.8 33.92-17.88 33.3-15.95 33.3-12.5L33.3-12.5Q33.3-8.6 34.07-6.55 34.85-4.5 36.55-3.75 38.25-3 41.05-3L41.05-3Q43-3 45.32-3.18 47.65-3.35 49.5-3.6L49.5-3.6 49.95-0.75Q48.8-0.3 47.12 0 45.45 0.3 43.67 0.45 41.9 0.6 40.5 0.6L40.5 0.6Q36.3 0.6 33.75-0.68 31.2-1.95 30.02-4.78 28.85-7.6 28.85-12.25L28.85-12.25Q28.85-17.05 30.02-19.83 31.2-22.6 33.67-23.78 36.15-24.95 40.05-24.95ZM56.95-35L61.2-35 61.15-6.7Q61.15-5.1 62.02-4.28 62.9-3.45 64.5-3.45L64.5-3.45 66.84-3.45 67.34-0.2Q66.9 0 66.07 0.15 65.25 0.3 64.37 0.38 63.5 0.45 62.9 0.45L62.9 0.45Q60.2 0.45 58.57-1.15 56.95-2.75 56.95-5.75L56.95-5.75 56.95-35ZM71.94-24.35L76.14-24.35 76.14 0 71.94 0 71.94-24.35ZM73.04-34.7L75.04-34.7Q76.34-34.7 76.34-33.4L76.34-33.4 76.34-30.55Q76.34-29.25 75.04-29.25L75.04-29.25 73.04-29.25Q71.74-29.25 71.74-30.55L71.74-30.55 71.74-33.4Q71.74-34.7 73.04-34.7L73.04-34.7ZM100.29-24.35L104.89-24.35 97.34-12.55 105.49 0 100.89 0 92.94-12.55 100.29-24.35ZM81.99-24.35L86.59-24.35 93.94-12.55 86.04 0 81.39 0 89.54-12.55 81.99-24.35ZM90.84-14.3L96.09-14.3 96.09-11 90.84-11 90.84-14.3Z" opacity="1" transform="matrix(1,0,0,1,0,0)" fill="#ffffff" class="undefined-text-0" data-fill-palette-color="quaternary" id="text-0"></path></svg></g></svg></g></svg></g></svg></g><g transform="matrix(1,0,0,1,66.50597756687668,0)"><svg viewBox="0 0 80.14648609340374 103.5775287073891" height="103.5775287073891" width="80.14648609340374"><g><svg xmlns="http://www.w3.org/2000/svg" xmlns:xlink="http://www.w3.org/1999/xlink" version="1.1" x="0" y="0" viewBox="12.982999801635742 1 75.68599700927734 97.81300354003906" enable-background="new 0 0 100 100" xml:space="preserve" height="103.5775287073891" width="80.14648609340374" class="icon-icon-0" data-fill-palette-color="quaternary" id="icon-0"><g fill="#ffffff" data-fill-palette-color="quaternary"><polygon fill-rule="evenodd" clip-rule="evenodd" points="12.983,10.59 30.001,98.813 24.129,39.764 53.15,37.872 53.096,27.989    64.549,1 53.622,18.977  " fill="#ffffff" data-fill-palette-color="quaternary"></polygon><polygon fill-rule="evenodd" clip-rule="evenodd" points="59.389,54.548 64.549,1.007 55.809,40.723 36.197,41.768 37.767,62.23    30.001,98.813 42.058,58.914  " fill="#ffffff" data-fill-palette-color="quaternary"></polygon><polygon fill-rule="evenodd" clip-rule="evenodd" points="62.8,67.182 63.349,56.729 47.37,60.484 47.338,72.281 30.001,98.813    51.681,71.197  " fill="#ffffff" data-fill-palette-color="quaternary"></polygon><polygon fill-rule="evenodd" clip-rule="evenodd" points="65.711,62.394 80.552,57.663 82.061,45.131 66.162,47.226  " fill="#ffffff" data-fill-palette-color="quaternary"></polygon><polygon fill-rule="evenodd" clip-rule="evenodd" points="72.07,44.502 83.058,43.085 84.639,32.807 76.56,32.434 64.549,1    72.979,31.967  " fill="#ffffff" data-fill-palette-color="quaternary"></polygon><polygon fill-rule="evenodd" clip-rule="evenodd" points="87.413,31.294 88.669,21.788 79.125,19.094 64.549,1 79.032,23.437    78.61,30.437  " fill="#ffffff" data-fill-palette-color="quaternary"></polygon></g></svg></g></svg></g><g></g></svg></g></svg></g></svg></g></svg></g><defs></defs></svg><rect width="335.6924202521908" height="335.6924202521908" fill="none" stroke="none" visibility="hidden"></rect></g></svg></g></svg>